<svg width="432" height="143" viewBox="0 0 432 143" fill="none" xmlns="http://www.w3.org/2000/svg">
<g clip-path="url(#clip0_2913_572)">
<path fill-rule="evenodd" clip-rule="evenodd" d="M83.9761 6.36722C83.9118 12.8315 83.6633 14.769 82.8061 15.4808C82.0506 16.1078 81.9418 16.6098 82.453 17.121C83.2622 17.9302 83.4585 32.4419 82.7199 36.9101C82.4495 38.5496 81.814 39.7712 81.139 39.9491C79.4606 40.3918 77.5923 45.0528 77.7391 48.4336C77.857 51.164 78.0336 51.4189 79.94 51.611L82.0117 51.82L81.8783 57.4687C81.312 81.334 79.3766 117.651 78.6309 118.396C77.7349 119.292 62.712 109.8 62.712 108.338C62.712 107.757 61.9452 106.778 61.0075 106.164C59.7415 105.334 59.1794 104.149 58.8228 101.558C58.5588 99.6396 58.085 98.0692 57.7694 98.0692C57.4537 98.0692 56.9799 99.6396 56.7159 101.558C56.3649 104.11 55.793 105.338 54.5849 106.129C53.6768 106.724 52.7504 107.775 52.5266 108.465C51.884 110.447 38.3009 118.437 30.5917 121.368L28.8194 122.041V98.8148V75.5879L24.9359 67.3223C22.3184 61.7526 21.0524 58.1649 21.0524 56.3213C21.0524 54.8166 20.7347 53.5852 20.3463 53.5852C19.958 53.5852 19.6402 54.8428 19.6402 56.3807C19.6402 58.2582 18.4815 61.6502 16.1097 66.7172L12.5793 74.259V108.406V142.553H6.26606C2.79349 142.553 -0.243427 142.871 -0.483499 143.259C-0.77441 143.73 71.4132 143.965 215.54 143.965C359.376 143.965 432 143.728 432 143.259C432 142.841 429.41 142.553 425.645 142.553C420.011 142.553 419.29 142.41 419.29 141.29C419.29 140.066 418.844 139.117 414.742 131.609C410.916 124.606 409.028 122.083 407.111 121.415C406.042 121.043 405.168 120.291 405.168 119.745C405.168 119.199 404.307 117.832 403.255 116.707C402.185 115.563 401.423 114.014 401.525 113.19C401.626 112.38 401.295 111.389 400.79 110.988C399.324 109.824 389.648 109.368 386.201 110.299C383.404 111.056 382.896 111.554 380.684 115.722C378.329 120.154 378.258 120.517 378.599 126.295C378.811 129.89 378.663 132.628 378.227 133.153C377.828 133.633 377.611 135.946 377.743 138.291L377.983 142.556L375.689 142.555C373.446 142.553 373.394 142.482 373.394 139.434C373.394 137.719 373.042 136.199 372.613 136.056C371.86 135.805 371.335 124.957 370.934 101.377C370.81 94.0543 370.558 92.1062 369.616 91.1643C368.546 90.0939 368.359 90.0917 367.316 91.1353C366.098 92.3527 365.702 97.9492 365.641 114.802C365.623 119.951 365.315 123.598 364.878 123.868C364.438 124.14 364.397 124.648 364.774 125.14C365.119 125.591 365.258 128.263 365.082 131.079L364.761 136.198H361.274H357.786L357.834 132.138C357.861 129.905 357.736 125.695 357.556 122.783C357.377 119.87 357.178 114.557 357.113 110.977C357.029 106.306 356.71 104.228 355.986 103.628C353.575 101.627 353.151 104.927 352.909 127.549L352.817 136.198H348.63H344.444L344.361 122.253C344.315 114.583 344.034 107.354 343.738 106.189C343.312 104.517 343.181 105.019 343.115 108.575L343.032 113.079L339.338 112.589C337.306 112.32 335.522 111.977 335.373 111.828C335.223 111.679 335.412 110.667 335.79 109.579C336.188 108.437 336.223 107.08 335.872 106.366C335.538 105.687 334.995 104.574 334.665 103.894C334.336 103.215 333.245 102.193 332.243 101.623C330.597 100.689 330.28 100.713 329.002 101.869C327.597 103.141 327.589 103.12 327.983 99.2999C328.577 93.5431 327.416 90.9885 322.063 86.2697C314.769 79.8414 314.157 79.1063 314.503 77.1956C314.675 76.2487 314.491 75.4742 314.096 75.4742C313.7 75.4742 313.376 76.4006 313.376 77.5324C313.376 79.2073 312.471 80.3582 308.52 83.7108C305.849 85.9766 302.808 89.1018 301.761 90.6552C300.084 93.1456 299.888 94.0282 300.102 98.1207L300.345 102.762L298.441 101.67C296.677 100.657 296.425 100.679 294.99 101.971C292.945 103.814 291.985 106.321 292.125 109.455C292.249 112.209 291.281 112.867 287.074 112.887C285.17 112.897 285.131 112.81 285.05 108.484C285.005 106.057 284.828 104.707 284.655 105.483C284.484 106.26 284.184 107.369 283.988 107.948C283.793 108.527 283.574 115.041 283.5 122.423L283.367 135.845L279.269 136.059L275.17 136.271L275.225 132.175C275.327 124.56 274.572 104.339 274.16 103.673C273.402 102.448 271.746 103 271.378 104.601C270.961 106.414 270.197 126.032 270.306 132.138L270.378 136.198H266.88H263.381L262.961 132.138C262.73 129.905 262.521 124.265 262.5 119.605C262.401 99.2067 261.981 92.4699 260.728 91.2166C259.602 90.091 259.452 90.1172 258.214 91.6452C257.349 92.7135 257.044 93.8552 257.325 94.9737C257.56 95.9093 257.383 97.1195 256.933 97.6625C256.316 98.4067 256.314 98.7732 256.927 99.1524C257.495 99.5033 257.586 101.067 257.227 104.334C256.945 106.908 256.762 112.247 256.819 116.199C256.881 120.529 256.63 123.564 256.188 123.838C255.784 124.088 255.666 124.637 255.927 125.059C256.629 126.195 256.193 135.806 255.428 136.08C255.066 136.21 254.77 137.719 254.77 139.434V142.553H249.442H244.114L244.47 140.258C244.665 138.996 244.991 136.216 245.195 134.08C245.584 129.99 245.911 126.659 246.991 115.76C247.449 111.134 247.42 108.81 246.896 108.178C246.48 107.677 246.333 106.492 246.571 105.543C247.17 103.158 245.402 101.6 242.096 101.6C239.184 101.6 238.119 102.472 237.992 104.961C237.947 105.838 237.414 107.053 236.808 107.659C236.202 108.265 235.681 109.612 235.651 110.653C235.621 111.693 235.474 113.021 235.323 113.603C234.954 115.034 231.477 135.792 230.978 139.552C230.669 141.87 230.279 142.553 229.259 142.553C228.532 142.553 227.938 142.241 227.938 141.86C227.938 141.479 224.072 134.25 219.348 125.796C210.882 110.648 209.562 107.157 211.782 105.784C212.192 105.531 212.42 104.565 212.289 103.638C212.094 102.254 211.579 101.914 209.415 101.735L206.778 101.516L204.197 93.2614C201.534 84.7452 201.1 81.2938 202.577 80.3808C203.923 79.549 202.738 77.5924 200.89 77.5924C199.221 77.5924 199.213 77.5522 197.711 61.1757C195.801 40.3488 195.014 20.0499 196.092 19.3841C196.955 18.851 197.1 16.0732 196.437 12.7588C196.136 11.2576 195.539 10.5247 194.495 10.3757C193.182 10.1879 192.934 9.56583 192.579 5.57074L192.171 0.981125L192.05 5.74727C191.934 10.2592 191.838 10.5134 190.25 10.5134C188.937 10.5134 188.477 10.9921 188.132 12.72C187.444 16.1636 187.612 18.9866 188.506 18.9866C189.967 18.9866 187.976 57.7822 185.69 73.8417C185.313 76.498 184.9 77.2825 183.801 77.4378C182.765 77.5833 181.962 76.8136 180.749 74.5132C179.843 72.7952 177.544 69.6411 175.638 67.5031C173.012 64.5572 172.427 63.5179 173.224 63.2121C174.488 62.727 174.603 60.5509 173.428 59.3752C172.094 58.0414 169.947 58.374 169.527 59.9803C169.318 60.7789 168.792 61.2732 168.357 61.079C162.54 58.4785 158.06 56.9688 155.137 56.6221C152.227 56.2776 151.628 55.9775 151.885 54.9932C152.368 53.1495 151.096 51.4669 149.221 51.4669C147.44 51.4669 146.396 53.2872 147.111 55.1485C147.429 55.9796 146.707 56.2882 143.722 56.596C141.635 56.8114 137.749 57.9757 135.085 59.1831C130.39 61.3127 129.138 61.2767 129.096 59.0108C129.09 58.6938 128.211 58.5349 127.143 58.6578C125.617 58.8329 125.153 59.2975 124.978 60.8269C124.831 62.0965 125.139 62.9205 125.862 63.1973C126.732 63.532 126.205 64.4584 123.399 67.5299C121.434 69.6785 118.941 73.1892 117.858 75.3315C116.673 77.6758 115.688 78.9009 115.385 78.4094C114.586 77.1173 112.235 77.4576 111.269 79.0046C110.208 80.7035 108.982 80.8899 109.608 79.2581C109.991 78.2583 109.894 78.2301 108.901 79.0548C107.916 79.8724 107.608 79.8166 106.767 78.6664C105.844 77.4039 105.784 77.4004 105.784 78.5993C105.784 79.5279 105.399 79.775 104.371 79.506C103.594 79.3026 103.12 79.3986 103.318 79.7199C103.517 80.0405 103.176 80.8052 102.563 81.4188C101.948 82.0331 101.787 82.5351 102.203 82.5351C102.619 82.5351 102.959 83.3295 102.959 84.3004C102.959 85.2712 102.7 86.0656 102.382 86.0656C101.616 86.0656 98.7087 77.1179 98.2152 73.2422C98.0005 71.5574 97.5656 69.6715 97.2485 69.0522C96.8849 68.3419 97.0925 67.3251 97.8099 66.3006C98.8606 64.8001 98.857 64.6088 97.7605 63.8073C96.7938 63.1005 96.7112 62.5766 97.3149 60.9886C98.206 58.6451 98.1156 58.5215 96.075 59.2933C95.0039 59.6986 94.4863 60.4774 94.4863 61.6827C94.4863 62.6656 94.1318 63.4705 93.6976 63.4705C93.2068 63.4705 93.0925 64.07 93.3947 65.0593C93.9836 66.9862 94.1276 67.6979 95.6182 76.0821C96.5396 81.2641 96.6237 83.244 96.0086 85.2479C95.3463 87.4072 95.4409 88.2517 96.6208 90.6884C97.3883 92.2743 98.0168 94.3615 98.0168 95.3267C98.0168 96.2913 98.3973 97.4613 98.8627 97.9266C99.52 98.584 99.4247 99.5633 98.4341 102.318C97.5974 104.645 97.3905 106.161 97.8311 106.732C98.2011 107.21 98.5477 110.938 98.6021 115.015C98.6565 119.093 98.869 125.535 99.0745 129.329C99.417 135.657 99.3188 136.405 97.8932 138.332C97.0388 139.489 95.9225 140.435 95.4127 140.435C94.9029 140.435 94.4863 140.912 94.4863 141.494C94.4863 143.825 93.1687 142.363 92.7366 139.552C92.4824 137.902 92.1018 135.519 91.89 134.257C91.5066 131.973 91.5193 131.962 94.4482 131.962H97.3919L97.1744 129.051C96.9703 126.309 96.774 126.074 93.7802 124.974L90.6028 123.807L89.7738 116.411C88.9597 109.141 87.9267 89.791 86.996 64.3532L86.5244 51.4669H88.8164C90.8937 51.4669 91.0681 51.3052 90.6769 49.7448C90.4389 48.7979 90.5632 47.8256 90.953 47.5848C92.1166 46.866 91.7594 44.7131 90.2497 43.3468C89.473 42.6443 88.8375 41.6783 88.8375 41.2017C88.8375 40.7244 88.2508 40.1807 87.5334 39.9929C86.6621 39.7655 86.0781 38.7403 85.7759 36.9101C85.0635 32.5994 85.2315 19.0346 86.0153 17.5708C86.4884 16.6868 86.4884 16.1029 86.0153 15.8105C85.6255 15.5698 85.2887 12.7701 85.2661 9.58913C85.2442 6.40817 84.9625 2.53453 84.6412 0.981125C84.1936 -1.18376 84.0382 0.0730913 83.9761 6.36722ZM148.856 58.506C148.856 58.8816 148.379 59.0066 147.796 58.7835C147.214 58.5597 146.737 58.2518 146.737 58.0993C146.737 57.9468 147.214 57.8218 147.796 57.8218C148.379 57.8218 148.856 58.1296 148.856 58.506ZM151.68 58.1332C151.68 58.3048 151.362 58.6409 150.974 58.8809C150.586 59.121 150.268 58.9805 150.268 58.5695C150.268 58.1586 150.586 57.8218 150.974 57.8218C151.362 57.8218 151.68 57.9616 151.68 58.1332ZM141.442 59.234C141.202 59.6223 140.707 59.9401 140.341 59.9401C139.975 59.9401 139.676 59.6223 139.676 59.234C139.676 58.8456 140.172 58.5279 140.777 58.5279C141.382 58.5279 141.682 58.8456 141.442 59.234ZM146.031 59.234C146.947 59.8257 146.931 59.9196 145.913 59.9295C145.264 59.9351 144.152 60.1583 143.441 60.4252C142.302 60.8524 142.264 60.7676 143.116 59.7191C144.231 58.35 144.575 58.2928 146.031 59.234ZM156.007 59.7092C156.877 60.7704 156.796 60.8432 155.21 60.4252C154.24 60.1689 153.127 59.9499 152.739 59.9387C152.008 59.9175 153.81 58.5575 154.595 58.5385C154.838 58.5328 155.474 59.0596 156.007 59.7092ZM159.094 59.234C159.334 59.6223 159.213 59.9401 158.824 59.9401C158.436 59.9401 157.922 59.6223 157.682 59.234C157.442 58.8456 157.563 58.5279 157.952 58.5279C158.34 58.5279 158.854 58.8456 159.094 59.234ZM138.264 59.9401C138.264 60.3284 137.927 60.6462 137.516 60.6462C137.105 60.6462 136.965 60.3284 137.205 59.9401C137.445 59.5517 137.781 59.234 137.953 59.234C138.124 59.234 138.264 59.5517 138.264 59.9401ZM161.918 59.9401C162.158 60.3284 161.841 60.6462 161.212 60.6462C160.584 60.6462 160.266 60.3284 160.506 59.9401C160.746 59.5517 161.064 59.234 161.212 59.234C161.361 59.234 161.678 59.5517 161.918 59.9401ZM135.352 63.1648C133.422 64.1978 133.127 64.0947 133.704 62.5908C133.967 61.9044 134.65 61.6474 135.573 61.8882C136.982 62.2575 136.976 62.2956 135.352 63.1648ZM148.856 73.3559C148.856 79.9579 148.723 85.3595 148.561 85.3595C147.853 85.3595 140.991 63.2884 141.539 62.7708C142.294 62.0569 144.366 61.5415 146.914 61.4342L148.856 61.3523V73.3559ZM157.5 62.6769C157.789 62.953 156.304 68.2487 154.201 74.4454L150.377 85.7125L150.322 73.4519L150.268 61.192L153.622 61.6834C155.467 61.9531 157.212 62.4008 157.5 62.6769ZM165.373 62.4693C166.022 64.1597 165.942 64.2105 164.017 63.3329C162.721 62.7426 162.479 62.362 163.134 61.9468C164.448 61.1136 164.893 61.2174 165.373 62.4693ZM131.459 63.8236C131.235 64.4061 130.927 64.8827 130.775 64.8827C130.622 64.8827 130.497 64.4061 130.497 63.8236C130.497 63.2411 130.805 62.7645 131.181 62.7645C131.557 62.7645 131.682 63.2411 131.459 63.8236ZM168.273 63.4705C168.513 63.8589 168.373 64.1766 167.962 64.1766C167.551 64.1766 167.214 63.8589 167.214 63.4705C167.214 63.0822 167.354 62.7645 167.525 62.7645C167.697 62.7645 168.033 63.0822 168.273 63.4705ZM143.124 74.5711C145.069 80.676 146.577 85.7549 146.475 85.8573C146.244 86.0889 132.615 67.2799 132.615 66.7292C132.615 66.2024 137.671 63.5419 138.749 63.5016C139.218 63.484 141.141 68.3497 143.124 74.5711ZM163.777 65.0204C165.294 65.8727 166.449 66.7638 166.344 67.001C165.811 68.2127 152.703 85.8926 152.489 85.6878C152.352 85.5558 153.728 80.9005 155.546 75.3421C157.365 69.7837 158.976 64.839 159.128 64.3532C159.52 63.0935 160.633 63.2531 163.777 65.0204ZM129.085 65.5888C129.085 65.9772 128.767 66.2949 128.379 66.2949C127.991 66.2949 127.673 65.9772 127.673 65.5888C127.673 65.2005 127.991 64.8827 128.379 64.8827C128.767 64.8827 129.085 65.2005 129.085 65.5888ZM171.451 65.5888C171.451 65.9772 171.152 66.2949 170.786 66.2949C170.42 66.2949 169.926 65.9772 169.685 65.5888C169.445 65.2005 169.745 64.8827 170.35 64.8827C170.955 64.8827 171.451 65.2005 171.451 65.5888ZM128.379 67.9507C128.379 68.0849 127.743 68.7698 126.967 69.4724C125.596 70.713 125.554 70.7059 125.554 69.2288C125.554 68.1781 125.992 67.7071 126.967 67.7071C127.743 67.7071 128.379 67.8166 128.379 67.9507ZM137.621 76.7098C141.193 81.661 144.467 86.1708 144.897 86.7307C145.521 87.5434 145.465 87.6218 144.619 87.1184C143.712 86.5782 136.149 81.1003 127.787 74.9291L125.43 73.1892L128.107 70.4482C129.579 68.9407 130.861 67.7071 130.955 67.7071C131.049 67.7071 134.049 71.7587 137.621 76.7098ZM170.992 70.4228L173.643 73.1384L166.016 78.6565C161.82 81.6906 157.292 84.9966 155.952 86.002C154.612 87.0082 153.8 87.3542 154.145 86.7717C155.833 83.9282 167.826 67.7071 168.239 67.7071C168.294 67.7071 169.533 68.9294 170.992 70.4228ZM173.569 69.1193C173.569 69.896 173.459 70.5315 173.325 70.5315C173.191 70.5315 172.506 69.896 171.804 69.1193C170.563 67.7488 170.57 67.7071 172.047 67.7071C173.098 67.7071 173.569 68.1442 173.569 69.1193ZM124.142 70.5315C124.142 70.9199 123.825 71.2376 123.436 71.2376C123.048 71.2376 122.73 70.9199 122.73 70.5315C122.73 70.1431 123.048 69.8254 123.436 69.8254C123.825 69.8254 124.142 70.1431 124.142 70.5315ZM176.393 70.4898C176.393 70.8556 176.076 71.3506 175.687 71.5906C175.299 71.8307 174.981 71.5313 174.981 70.9262C174.981 70.3211 175.299 69.8254 175.687 69.8254C176.076 69.8254 176.393 70.1241 176.393 70.4898ZM122.73 72.9273C122.73 73.0798 122.253 73.3877 121.671 73.6115C121.088 73.8346 120.612 73.7096 120.612 73.334C120.612 72.9576 121.088 72.6498 121.671 72.6498C122.253 72.6498 122.73 72.7748 122.73 72.9273ZM178.159 73.3559C178.399 73.7442 178.277 74.062 177.889 74.062C177.5 74.062 176.986 73.7442 176.746 73.3559C176.506 72.9675 176.628 72.6498 177.016 72.6498C177.404 72.6498 177.918 72.9675 178.159 73.3559ZM134.394 81.6285C139.591 85.4019 143.762 88.5701 143.663 88.6697C143.198 89.1336 121.318 81.6927 121.318 81.07C121.318 80.1181 124.069 74.7681 124.558 74.7681C124.771 74.7681 129.198 77.8551 134.394 81.6285ZM176.411 77.9822C177.267 79.7503 177.841 81.3228 177.686 81.4774C177.251 81.9131 155.64 88.8483 155.415 88.6245C155.163 88.3717 173.761 74.8055 174.389 74.7836C174.645 74.7751 175.555 76.2142 176.411 77.9822ZM121.174 77.274C120.457 78.8465 120.27 78.9248 119.695 77.8961C119.238 77.0798 119.332 76.5305 120 76.1068C121.663 75.0533 122.023 75.4106 121.174 77.274ZM179.097 77.6475C179.324 79.3224 179.306 79.3287 178.236 77.9455C176.904 76.2226 176.797 75.2567 177.982 75.6472C178.468 75.8067 178.969 76.707 179.097 77.6475ZM118.494 79.7107C118.494 80.0991 118.157 80.4168 117.746 80.4168C117.335 80.4168 117.194 80.0991 117.434 79.7107C117.674 79.3224 118.011 79.0046 118.182 79.0046C118.354 79.0046 118.494 79.3224 118.494 79.7107ZM181.336 79.7107C181.336 80.0991 180.999 80.4168 180.588 80.4168C180.177 80.4168 180.037 80.0991 180.277 79.7107C180.517 79.3224 180.853 79.0046 181.025 79.0046C181.196 79.0046 181.336 79.3224 181.336 79.7107ZM117.787 82.4935C117.787 82.8592 117.47 83.3542 117.081 83.5943C116.693 83.8343 116.375 83.5349 116.375 82.9298C116.375 82.3247 116.693 81.829 117.081 81.829C117.47 81.829 117.787 82.1277 117.787 82.4935ZM182.748 83.3245C182.748 83.7129 182.43 83.8343 182.042 83.5943C181.654 83.3542 181.336 82.8401 181.336 82.4518C181.336 82.0634 181.654 81.942 182.042 82.1821C182.43 82.4221 182.748 82.9362 182.748 83.3245ZM114.717 83.7708C114.53 84.45 114.173 86.4991 113.926 88.3237C113.6 90.7272 113.209 91.5385 112.509 91.2702C111.268 90.7943 110.671 89.2748 110.257 85.536L109.924 82.5351H112.491C114.595 82.5351 114.997 82.7582 114.717 83.7708ZM132.792 87.0584C138.52 88.8702 143.207 90.4999 143.207 90.6806C143.207 90.8607 137.762 91.0083 131.107 91.0083H119.008L119.451 87.7722C119.968 84.0024 120.446 83.0273 121.566 83.4544C122.012 83.6246 127.063 85.2465 132.792 87.0584ZM178.779 84.4769C178.979 85.1561 179.353 86.9044 179.612 88.3604L180.081 91.0083H167.881C161.171 91.0083 155.849 90.8402 156.054 90.6347C156.526 90.1631 176.455 83.369 177.582 83.2956C178.041 83.2659 178.58 83.7976 178.779 84.4769ZM195.774 84.8299C196.254 87.052 198.282 100.537 198.282 101.507C198.282 102.029 196.477 102.306 193.073 102.306C186.077 102.306 185.823 101.965 186.907 93.988C188.487 82.3579 188.069 83.2412 191.992 83.2412C194.986 83.2412 195.476 83.4467 195.774 84.8299ZM117.897 87.1332C117.433 88.8688 117.27 88.9867 116.849 87.8908C116.575 87.177 116.719 86.1489 117.17 85.6059C118.309 84.234 118.542 84.7226 117.897 87.1332ZM182.042 86.8133C182.042 87.5674 181.724 88.1839 181.336 88.1839C180.948 88.1839 180.63 87.3705 180.63 86.377C180.63 85.3524 180.936 84.7586 181.336 85.0064C181.724 85.2465 182.042 86.0592 182.042 86.8133ZM116.631 89.9491C116.854 90.5316 116.729 91.0083 116.353 91.0083C115.977 91.0083 115.669 90.5316 115.669 89.9491C115.669 89.3666 115.794 88.89 115.947 88.89C116.099 88.89 116.407 89.3666 116.631 89.9491ZM117.081 92.7318C117.081 92.9034 116.764 93.2395 116.375 93.4796C115.987 93.7197 115.669 93.5791 115.669 93.1682C115.669 92.7572 115.987 92.4204 116.375 92.4204C116.764 92.4204 117.081 92.5603 117.081 92.7318ZM143.148 92.705C142.986 92.8611 138.413 94.4406 132.986 96.215L123.118 99.4412L121.159 97.5636C120.082 96.5313 119.2 94.9518 119.2 94.0536V92.4204H131.321C137.987 92.4204 143.31 92.5483 143.148 92.705ZM179.711 94.3622C179.496 95.4298 179 97.1449 178.608 98.173L177.896 100.042L167.148 96.5899C161.236 94.692 156.238 92.9769 156.04 92.7799C155.843 92.5821 161.176 92.4204 167.891 92.4204H180.1L179.711 94.3622ZM117.787 96.4452C117.787 97.7564 117.56 98.1243 117.058 97.6223C116.657 97.2212 116.532 96.3633 116.781 95.7158C117.435 94.0113 117.787 94.2669 117.787 96.4452ZM143.854 94.7837C142.357 96.0314 124.743 108.661 124.5 108.661C123.75 108.661 121.957 104.204 122.157 102.843C122.34 101.612 124.068 100.784 132.262 98.0035C140.959 95.0535 144.816 93.9816 143.854 94.7837ZM166.154 97.8044C176.767 101.309 178.747 102.306 175.1 102.306C172.564 102.306 171.485 103.823 172.851 105.468C173.319 106.033 173.592 106.826 173.457 107.23C173.277 107.771 157.419 96.9592 155.269 94.8303C154.537 94.1045 156.947 94.7633 166.154 97.8044ZM144.125 97.5898C143.814 98.1031 140.732 102.411 137.276 107.163L130.993 115.803L128.269 113.144C125.041 109.991 124.479 110.807 135.44 102.735C143.482 96.8124 145.218 95.7843 144.125 97.5898ZM172.863 110.436C172.863 110.86 171.785 112.253 170.467 113.53L168.072 115.851L164.242 110.667C158.709 103.179 155.21 98.0007 155.21 97.3024C155.21 96.9684 159.182 99.6127 164.037 103.179C168.891 106.746 172.863 110.011 172.863 110.436ZM157.145 120.793C156.664 121.099 155.634 121.358 154.857 121.369C154.081 121.38 152.731 121.581 151.857 121.815L150.268 122.241L150.322 109.979L150.377 97.7162L154.199 108.976C157.079 117.461 157.805 120.373 157.145 120.793ZM148.856 110.469V122.163L145.502 121.684C143.657 121.42 141.874 120.953 141.539 120.644C140.817 119.979 147.619 98.7753 148.553 98.7753C148.719 98.7753 148.856 104.038 148.856 110.469ZM121.765 107.743C121.069 108.438 119.34 106.997 119.711 106.032C120.079 105.074 120.253 105.097 121.071 106.215C121.587 106.921 121.899 107.609 121.765 107.743ZM122.024 110.073C122.024 110.461 121.706 110.779 121.318 110.779C120.93 110.779 120.612 110.461 120.612 110.073C120.612 109.684 120.93 109.367 121.318 109.367C121.706 109.367 122.024 109.684 122.024 110.073ZM159.052 114.225C161.294 118.679 161.528 119.958 160.099 119.958C159.811 119.958 158.773 117.575 157.794 114.662C156.815 111.75 156.147 109.367 156.309 109.367C156.472 109.367 157.706 111.553 159.052 114.225ZM123.983 116.522C126.336 119.068 126.766 119.884 125.927 120.206C125.333 120.434 124.848 121.403 124.848 122.36C124.848 124.84 127.52 125.596 129.154 123.578C131.816 120.291 131.092 122.469 126.837 130.544L122.377 139.011L118.965 139.017L115.554 139.023L115.906 131.432C116.098 127.257 116.442 123.365 116.67 122.783C116.896 122.2 116.821 119.58 116.502 116.959C115.969 112.584 116.041 112.113 117.384 111.183C118.703 110.269 118.95 110.321 119.904 111.71C120.485 112.557 122.321 114.722 123.983 116.522ZM135.793 113.603C134.809 115.545 133.692 117.134 133.31 117.134C132.928 117.134 132.615 116.953 132.615 116.731C132.615 116.159 136.852 110.073 137.251 110.073C137.433 110.073 136.777 111.662 135.793 113.603ZM141.019 115.599C140.209 117.997 139.311 119.958 139.023 119.958C137.573 119.958 137.781 118.673 139.835 114.938C141.074 112.683 142.179 110.928 142.29 111.039C142.4 111.15 141.829 113.202 141.019 115.599ZM166.508 116.774C166.508 117.959 165.138 116.747 163.814 114.39C161.625 110.496 161.904 110.06 164.39 113.491C165.555 115.1 166.508 116.577 166.508 116.774ZM52.6996 113.074C52.5499 114.125 50.9301 115.677 47.9066 117.663C45.395 119.313 43.0917 120.664 42.7874 120.664C41.6457 120.664 42.2607 117.221 43.4723 116.837C44.1523 116.62 46.2967 115.346 48.2385 114.004C52.4383 111.099 52.9962 110.983 52.6996 113.074ZM68.5373 114.926C71.654 116.935 73.3034 118.459 73.3034 119.331C73.3034 121.203 72.788 121.052 67.6321 117.663C64.4907 115.599 62.9916 114.142 62.8292 112.995C62.551 111.032 62.4345 110.992 68.5373 114.926ZM123.692 112.544C123.915 113.127 123.79 113.603 123.414 113.603C123.038 113.603 122.73 113.127 122.73 112.544C122.73 111.962 122.855 111.485 123.008 111.485C123.16 111.485 123.468 111.962 123.692 112.544ZM127.32 114.309C128.56 115.68 128.553 115.722 127.076 115.722C126.025 115.722 125.554 115.285 125.554 114.309C125.554 113.533 125.664 112.897 125.798 112.897C125.932 112.897 126.617 113.533 127.32 114.309ZM69.5964 120.698C72.4491 122.381 73.3034 123.281 73.3034 124.599C73.3034 126.236 73.0994 126.313 68.7555 126.313C66.2538 126.313 64.0663 126.075 63.8933 125.783C63.7203 125.492 63.3454 123.203 63.0594 120.697L62.5404 116.141L64.2146 117.326C65.136 117.978 67.5579 119.495 69.5964 120.698ZM52.4991 119.076C52.2286 120.143 51.8403 122.209 51.6362 123.665L51.2662 126.313H46.7507C42.4647 126.313 42.2353 126.228 42.2353 124.631C42.2353 123.31 43.257 122.332 47.0014 120.07C49.6231 118.487 52.0429 117.178 52.3797 117.163C52.7158 117.146 52.7695 118.008 52.4991 119.076ZM129.085 117.84C129.085 118.228 128.767 118.546 128.379 118.546C127.991 118.546 127.673 118.228 127.673 117.84C127.673 117.452 127.991 117.134 128.379 117.134C128.767 117.134 129.085 117.452 129.085 117.84ZM39.3784 122.468C38.118 123.987 37.2926 123.706 37.2926 121.759C37.2926 119.495 39.6587 117.989 39.9948 120.039C40.1212 120.814 39.8444 121.907 39.3784 122.468ZM131.473 119.642C131.714 120.27 131.595 120.553 131.195 120.306C130.811 120.069 130.497 119.576 130.497 119.21C130.497 118.195 131.003 118.419 131.473 119.642ZM168.049 120.111C167.543 120.618 167.214 120.659 167.214 120.217C167.214 119.816 167.426 119.275 167.685 119.017C167.943 118.758 168.32 118.71 168.52 118.911C168.721 119.112 168.509 119.652 168.049 120.111ZM77.1291 119.681C78.227 120.101 78.7524 123.499 77.7165 123.478C76.6404 123.456 75.6399 122.386 75.2494 120.841C74.8335 119.194 75.2276 118.951 77.1291 119.681ZM200.048 121.564C207.37 125.211 211.551 130.982 212.221 138.367L212.6 142.553H199.841C187.148 142.553 187.082 142.545 186.858 140.964C186.651 139.511 186.207 139.358 181.626 139.17L176.621 138.966L175.028 136.131C173.089 132.681 173.392 131.129 176.78 127.172C182.967 119.943 192.285 117.697 200.048 121.564ZM393.633 122.076C394.873 122.076 398.636 126.652 399.152 128.784C399.729 131.173 399.695 137.666 399.09 140.639L398.689 142.608L392.926 142.404L387.163 142.2L386.933 139.788C386.806 138.461 385.89 136.311 384.898 135.009L383.092 132.642L384.951 129.06C385.973 127.089 386.82 125.108 386.833 124.659C386.864 123.573 389.066 120.981 390.365 120.502C390.934 120.292 391.752 120.56 392.183 121.098C392.614 121.637 393.267 122.076 393.633 122.076ZM34.7118 124.722C33.5538 125.575 33.3822 125.505 33.1655 124.095C33.0207 123.15 33.4486 122.121 34.2246 121.549C35.3826 120.696 35.5542 120.766 35.771 122.176C35.9157 123.121 35.4878 124.15 34.7118 124.722ZM138.264 122.783C138.264 123.171 137.927 123.489 137.516 123.489C137.105 123.489 136.965 123.171 137.205 122.783C137.445 122.394 137.781 122.076 137.953 122.076C138.124 122.076 138.264 122.394 138.264 122.783ZM31.5167 124.364C31.2251 126.408 28.8194 126.985 28.8194 125.012C28.8194 123.733 29.6244 122.987 31.1637 122.838C31.4814 122.808 31.6403 123.494 31.5167 124.364ZM145.648 123.44C146.408 124.669 144.488 125.073 143.341 123.925C142.288 122.872 142.318 122.783 143.72 122.783C144.557 122.783 145.425 123.078 145.648 123.44ZM155.84 123.868C155.196 124.511 154.249 124.758 153.512 124.476C152.529 124.099 152.466 123.873 153.209 123.401C153.728 123.073 154.776 122.799 155.538 122.793C156.786 122.784 156.816 122.891 155.84 123.868ZM162.08 123.209C161.846 123.443 161.236 123.469 160.727 123.265C160.164 123.04 160.331 122.872 161.154 122.838C161.898 122.808 162.315 122.975 162.08 123.209ZM141.442 124.195C141.682 124.583 141.56 124.901 141.172 124.901C140.784 124.901 140.269 124.583 140.029 124.195C139.789 123.806 139.911 123.489 140.299 123.489C140.687 123.489 141.202 123.806 141.442 124.195ZM159.094 124.195C158.854 124.583 158.34 124.901 157.952 124.901C157.563 124.901 157.442 124.583 157.682 124.195C157.922 123.806 158.436 123.489 158.824 123.489C159.213 123.489 159.334 123.806 159.094 124.195ZM40.117 125.254C40.117 125.888 39.4794 126.304 38.5283 126.29C36.9791 126.269 36.9741 126.242 38.3101 125.231C40.0125 123.944 40.117 123.945 40.117 125.254ZM77.54 125.682C77.54 126.029 77.0634 126.313 76.4809 126.313C75.8983 126.313 75.4217 125.846 75.4217 125.276C75.4217 124.645 75.8355 124.398 76.4809 124.645C77.0634 124.869 77.54 125.336 77.54 125.682ZM145.435 127.019C147.234 127.019 147.472 127.229 147.08 128.465C146.532 130.19 147.816 131.962 149.613 131.962C151.184 131.962 152.325 130.116 151.859 128.331C151.575 127.247 151.929 127.015 153.892 126.996C155.2 126.983 158.013 126.372 160.143 125.636C163.004 124.648 164.151 124.514 164.527 125.123C164.948 125.803 161.741 132.496 158.461 137.787C157.771 138.901 156.218 139.023 142.684 139.023C134.428 139.023 127.673 138.819 127.673 138.572C127.673 138.323 129.307 135.034 131.304 131.263L134.935 124.406L139.134 125.712C141.443 126.431 144.279 127.019 145.435 127.019ZM148.856 124.901C148.856 125.289 148.299 125.602 147.62 125.596C146.564 125.587 146.538 125.485 147.443 124.901C148.776 124.039 148.856 124.039 148.856 124.901ZM152.386 125.329C152.386 125.482 151.909 125.607 151.327 125.607C150.744 125.607 150.268 125.299 150.268 124.923C150.268 124.547 150.744 124.422 151.327 124.645C151.909 124.869 152.386 125.177 152.386 125.329ZM31.6438 129.137C31.6438 130.079 31.1729 130.55 30.2316 130.55C29.2904 130.55 28.8194 130.079 28.8194 129.137C28.8194 128.196 29.2904 127.725 30.2316 127.725C31.1729 127.725 31.6438 128.196 31.6438 129.137ZM35.8804 129.137C35.8804 130.079 35.4094 130.55 34.4682 130.55C33.527 130.55 33.056 130.079 33.056 129.137C33.056 128.196 33.527 127.725 34.4682 127.725C35.4094 127.725 35.8804 128.196 35.8804 129.137ZM40.117 129.137C40.117 130.079 39.646 130.55 38.7048 130.55C37.7636 130.55 37.2926 130.079 37.2926 129.137C37.2926 128.196 37.7636 127.725 38.7048 127.725C39.646 127.725 40.117 128.196 40.117 129.137ZM50.9132 129.137C50.5961 130.348 49.9501 130.55 46.3892 130.55C42.7062 130.55 42.2353 130.389 42.2353 129.137C42.2353 127.872 42.7062 127.725 46.7585 127.725C50.9344 127.725 51.2542 127.834 50.9132 129.137ZM73.3034 129.137C73.3034 130.389 72.8325 130.55 69.1495 130.55C65.5887 130.55 64.9426 130.348 64.6255 129.137C64.2845 127.834 64.6044 127.725 68.7802 127.725C72.8325 127.725 73.3034 127.872 73.3034 129.137ZM77.415 128.902C77.0719 130.674 75.4217 130.917 75.4217 129.196C75.4217 128.329 75.8779 127.725 76.5324 127.725C77.1905 127.725 77.5506 128.205 77.415 128.902ZM95.8985 129.137C95.8985 130.079 95.4275 130.55 94.4863 130.55C93.5451 130.55 93.0741 130.079 93.0741 129.137C93.0741 128.196 93.5451 127.725 94.4863 127.725C95.4275 127.725 95.8985 128.196 95.8985 129.137ZM52.098 135.316C52.086 137.161 51.6193 139.273 51.0614 140.009C50.5036 140.746 50.2148 141.62 50.4196 141.951C50.6244 142.282 45.8476 142.553 39.8056 142.553H28.8194V137.257V131.962H40.47H52.1206L52.098 135.316ZM76.5204 136.022C75.7211 142.836 75.9993 142.553 70.0787 142.553C65.3542 142.553 64.8303 142.416 64.8303 141.183C64.8303 140.429 64.5126 139.616 64.1242 139.376C63.7359 139.136 63.4181 137.37 63.4181 135.451V131.962H70.2072H76.9963L76.5204 136.022Z" fill="#D9DCE3"/>
</g>
<defs>
<clipPath id="clip0_2913_572">
<rect width="432" height="143" fill="white"/>
</clipPath>
</defs>
</svg>
